<?xml version="1.0" encoding="utf-8"?>
<!-- Generator: Adobe Illustrator 16.0.3, SVG Export Plug-In . SVG Version: 6.00 Build 0)  -->
<!DOCTYPE svg PUBLIC "-//W3C//DTD SVG 1.1//EN" "http://www.w3.org/Graphics/SVG/1.1/DTD/svg11.dtd">
<svg version="1.1" id="Layer_1" xmlns="http://www.w3.org/2000/svg" xmlns:xlink="http://www.w3.org/1999/xlink" x="0px" y="0px"
	 width="960px" height="245px" viewBox="0 0 960 245" enable-background="new 0 0 960 245" xml:space="preserve">
<rect fill="#95C4F8" width="960" height="245"/>
<g>
	<path fill="#FFFFFF" d="M396.979,173.371c0-13.684,11.094-24.777,24.776-24.777c2.065,0,4.041,0.327,5.958,0.803
		c6.465-6.98,15.632-11.42,25.897-11.42c19.549,0,35.396,15.847,35.396,35.395H396.979L396.979,173.371z"/>
</g>
<g>
	<path fill="#FFFFFF" d="M527.677,54.79c0-14.847,12.036-26.881,26.882-26.881c2.24,0,4.383,0.354,6.464,0.871
		c7.015-7.576,16.961-12.391,28.098-12.391c21.209,0,38.401,17.192,38.401,38.401H527.677z"/>
</g>
<g opacity="0.6">
	<path fill="#FFFFFF" d="M368.265,155.484c-1.876,0-3.65,0.369-5.351,0.904c-5.384-7.74-14.317-12.83-24.461-12.83
		s-19.077,5.088-24.462,12.83c-1.7-0.535-3.474-0.904-5.351-0.904c-9.879,0-17.888,8.008-17.888,17.887h95.401
		C386.153,163.492,378.145,155.484,368.265,155.484z"/>
</g>
<g>
	<path fill="#FFFFFF" d="M135.438,159.693c-1.424,0-2.771,0.281-4.06,0.688c-4.086-5.874-10.864-9.734-18.562-9.734
		c-7.698,0-14.476,3.861-18.562,9.734c-1.29-0.406-2.636-0.688-4.06-0.688c-7.497,0-13.573,6.078-13.573,13.574h72.389
		C149.009,165.771,142.933,159.693,135.438,159.693z"/>
</g>
<g>
	<path fill="#FFFFFF" d="M454.375,54.79c0-14.847,12.035-26.881,26.881-26.881c2.24,0,4.382,0.354,6.464,0.871
		c7.015-7.576,16.959-12.391,28.097-12.391c21.209,0,38.401,17.192,38.401,38.401H454.375z"/>
</g>
<g>
	<path fill="#FFFFFF" d="M857.337,36.636c-1.875,0-3.65,0.369-5.35,0.905c-5.386-7.741-14.318-12.831-24.461-12.831
		c-10.146,0-19.078,5.089-24.464,12.831c-1.698-0.536-3.473-0.905-5.35-0.905c-9.879,0-17.889,8.008-17.889,17.887h95.399
		C875.226,44.644,867.216,36.636,857.337,36.636z"/>
</g>
<g>
	<path fill="#FFFFFF" d="M460.042,41.216c-1.437,0-2.794,0.28-4.094,0.687c-4.119-5.875-10.952-9.735-18.711-9.735
		c-7.76,0-14.593,3.862-18.712,9.735c-1.3-0.407-2.657-0.687-4.092-0.687c-7.558,0-13.683,6.077-13.683,13.574h72.97
		C473.723,47.293,467.598,41.216,460.042,41.216z"/>
</g>
<g opacity="0.6">
	<path fill="#FFFFFF" d="M412.997,42.126c-1.337,0-2.603,0.262-3.814,0.641c-3.84-5.48-10.21-9.083-17.442-9.083
		c-7.232,0-13.604,3.603-17.441,9.083c-1.213-0.379-2.478-0.641-3.815-0.641c-2.445,0-4.708,0.718-6.65,1.903
		c-4.115-8.858-13.081-15.04-23.552-15.04c-7.537,0-14.268,3.236-19.013,8.325c-1.407-0.347-2.857-0.585-4.374-0.585
		c-10.048,0-18.191,8.087-18.191,18.061h59.024h8.539h59.484C425.752,47.796,420.042,42.126,412.997,42.126z"/>
</g>
<g>
	<path fill="#FFFFFF" d="M351.453,102.405c-1.083,0-2.106,0.213-3.088,0.523c-3.107-4.467-8.262-7.404-14.116-7.404
		c-4.317,0-8.238,1.613-11.255,4.243c-4.117-5.941-10.964-9.847-18.74-9.847c-6.615,0-12.522,2.859-16.687,7.359
		c-1.236-0.307-2.508-0.518-3.839-0.518c-8.818,0-15.965,7.148-15.965,15.966h38.959h20.34h34.714
		C361.776,107.028,357.155,102.405,351.453,102.405z"/>
</g>
<g opacity="0.7">
	<path fill="#FFFFFF" d="M101.111,173.359c-4.098-4.705-8.301-9.312-12.699-13.731c-0.349,0.263-0.727,0.485-1.055,0.771
		c-4.117-5.939-10.965-9.846-18.74-9.846c-6.615,0-12.522,2.859-16.688,7.359c-1.236-0.309-2.508-0.518-3.839-0.518
		c-8.817-0.002-15.965,7.146-15.965,15.965h38.959h20.34H101.111L101.111,173.359z"/>
</g>
<path fill="#FFFFFF" d="M597.04,112.728"/>
<path fill="#FFFFFF" d="M613.005,96.763"/>
<g>
	<path fill="#FFFFFF" d="M864.033,160.658c-1.329,0-2.585,0.262-3.788,0.641c-3.812-5.48-10.137-9.083-17.318-9.083
		c-7.181,0-13.507,3.603-17.317,9.083c-1.204-0.379-2.46-0.641-3.788-0.641c-2.429,0-4.675,0.718-6.604,1.902
		c-4.086-8.857-12.987-15.039-23.385-15.039c-7.483,0-14.166,3.235-18.878,8.324c-1.397-0.347-2.837-0.585-4.343-0.585
		c-9.977,0-18.062,8.087-18.062,18.062h58.605h8.478h59.062C876.697,166.328,871.027,160.658,864.033,160.658z"/>
</g>
<g>
	<path fill="#FFFFFF" d="M537.367,163.037c-1.084,0-2.107,0.213-3.088,0.523c-3.107-4.468-8.263-7.404-14.115-7.404
		c-4.318,0-8.238,1.613-11.256,4.242c-4.117-5.94-10.965-9.847-18.74-9.847c-6.615,0-12.521,2.859-16.688,7.359
		c-1.235-0.308-2.509-0.519-3.839-0.519c-8.817,0-15.966,7.148-15.966,15.967h38.96h20.34h34.714
		C547.689,167.66,543.068,163.037,537.367,163.037z"/>
</g>
<g opacity="0.7">
	<path fill="#FFFFFF" d="M772.059,112.81c-4.098-4.704-8.301-9.312-12.698-13.732c-0.35,0.261-0.728,0.485-1.056,0.772
		c-4.116-5.941-10.965-9.847-18.739-9.847c-6.615,0-12.522,2.86-16.688,7.359c-1.236-0.307-2.508-0.517-3.839-0.517
		c-8.817-0.001-15.965,7.146-15.965,15.964h38.959h20.34L772.059,112.81L772.059,112.81z"/>
</g>
<g opacity="0.6">
	<path fill="#FFFFFF" d="M788.467,40.949c-1.424,0-2.771,0.28-4.061,0.687c-4.086-5.874-10.864-9.735-18.562-9.735
		c-7.697,0-14.475,3.862-18.562,9.735c-1.29-0.407-2.636-0.687-4.061-0.687c-7.497,0-13.573,6.077-13.573,13.573h72.389
		C802.039,47.026,795.962,40.949,788.467,40.949z"/>
</g>
<g>
	<path fill="#FFFFFF" d="M178.822,155.436c-1.877,0-3.65,0.369-5.352,0.904c-5.383-7.74-14.317-12.83-24.46-12.83
		c-10.143,0-19.077,5.088-24.462,12.83c-1.7-0.535-3.474-0.904-5.351-0.904c-9.879,0-17.888,8.008-17.888,17.887h95.401
		C196.709,163.443,188.701,155.436,178.822,155.436z"/>
</g>
<g>
	<path fill="#FFFFFF" d="M415.967,155.482c-1.877,0-3.649,0.369-5.352,0.906c-5.383-7.742-14.317-12.832-24.461-12.832
		s-19.077,5.09-24.462,12.832c-1.7-0.537-3.474-0.906-5.351-0.906c-9.879,0-17.888,8.009-17.888,17.888h95.4
		C433.854,163.491,425.846,155.482,415.967,155.482z"/>
</g>
<g opacity="0.6">
	<path fill="#FFFFFF" d="M732.662,155.436c-1.877,0-3.65,0.369-5.353,0.905c-5.383-7.741-14.316-12.831-24.46-12.831
		c-10.145,0-19.078,5.09-24.463,12.831c-1.699-0.536-3.473-0.905-5.351-0.905c-9.879,0-17.888,8.008-17.888,17.888h95.4
		C750.549,163.443,742.541,155.436,732.662,155.436z"/>
</g>
<g>
	<path fill="#FFFFFF" d="M566.354,94.889c-1.895,0-3.685,0.368-5.402,0.903c-5.434-7.719-14.448-12.794-24.686-12.794
		c-10.238,0-19.253,5.074-24.688,12.794c-1.715-0.535-3.505-0.903-5.4-0.903c-9.97,0-18.052,7.986-18.052,17.836h96.281
		C584.405,102.875,576.323,94.889,566.354,94.889z"/>
</g>
<g>
	<path fill="#FFFFFF" d="M705.802,173.23c0-14.848,12.035-26.881,26.881-26.881c2.24,0,4.384,0.354,6.464,0.871
		c7.016-7.576,16.961-12.392,28.098-12.392c21.209,0,38.401,17.192,38.401,38.401H705.802z"/>
</g>
<g opacity="0.6">
	<path fill="#FFFFFF" d="M530.883,112.726c-4.098-4.704-8.301-9.312-12.699-13.732c-0.349,0.261-0.727,0.485-1.055,0.772
		c-4.117-5.941-10.965-9.847-18.74-9.847c-6.615,0-12.521,2.86-16.688,7.359c-1.236-0.307-2.509-0.517-3.84-0.517
		c-8.816-0.001-15.965,7.146-15.965,15.964h38.959h20.34L530.883,112.726L530.883,112.726z"/>
</g>
<g>
	<path fill="#FFFFFF" d="M733.971,112.81c0-14.847,12.036-26.881,26.883-26.881c2.239,0,4.382,0.354,6.463,0.871
		c7.015-7.576,16.961-12.391,28.098-12.391c21.209,0,38.401,17.192,38.401,38.401H733.971z"/>
</g>
<g>
	<path fill="#FFFFFF" d="M870.499,102.405c-1.084,0-2.107,0.213-3.088,0.523c-3.107-4.467-8.262-7.404-14.115-7.404
		c-4.317,0-8.238,1.613-11.256,4.243c-4.117-5.941-10.965-9.847-18.74-9.847c-6.614,0-12.521,2.859-16.688,7.359
		c-1.236-0.307-2.508-0.518-3.838-0.518c71.816,0-15.968,7.148-15.968,15.966h38.961h20.341h34.713
		C880.821,107.028,876.2,102.405,870.499,102.405z"/>
</g>
<g>
	<path fill="#FFFFFF" d="M905.323,44.292c-1.084,0-2.107,0.213-3.088,0.523c-3.107-4.467-8.263-7.404-14.115-7.404
		c-4.318,0-8.238,1.613-11.256,4.243c-4.117-5.941-10.965-9.847-18.74-9.847c-6.615,0-12.521,2.859-16.688,7.359
		c-1.235-0.307-2.508-0.518-3.838-0.518c-8.817,0-15.967,7.148-15.967,15.966h38.961h20.34h34.714
		C915.646,48.916,911.024,44.292,905.323,44.292z"/>
</g>
<g>
	<path fill="#FFFFFF" d="M646.483,41.216c-1.425,0-2.771,0.28-4.062,0.687c-4.086-5.874-10.864-9.735-18.562-9.735
		s-14.476,3.862-18.562,9.735c-1.29-0.407-2.636-0.687-4.061-0.687c-7.496,0-13.572,6.077-13.572,13.573h72.388
		C660.056,47.293,653.979,41.216,646.483,41.216z"/>
</g>
<g>
	<path fill="#FFFFFF" d="M172.12,41.953c-1.338,0-2.604,0.265-3.816,0.647c-3.842-5.537-10.216-9.177-17.454-9.177
		c-7.237,0-13.613,3.64-17.453,9.177c-1.215-0.383-2.48-0.647-3.819-0.647c-2.447,0-4.71,0.726-6.654,1.922
		c-4.118-8.95-13.089-15.195-23.568-15.195c-7.541,0-14.277,3.27-19.025,8.411c-1.408-0.35-2.859-0.591-4.377-0.591
		C65.9,36.5,57.75,44.671,57.75,54.748h59.063h8.544h59.524C184.883,47.682,179.168,41.953,172.12,41.953z"/>
</g>
<g opacity="0.7">
	<path fill="#FFFFFF" d="M104.053,44.426c-1.084,0-2.107,0.213-3.088,0.523c-3.107-4.467-8.262-7.404-14.115-7.404
		c-4.318,0-8.238,1.613-11.256,4.243c-4.117-5.941-10.965-9.847-18.74-9.847c-6.615,0-12.521,2.859-16.688,7.359
		c-1.236-0.307-2.508-0.518-3.838-0.518c-8.818,0-15.967,7.148-15.967,15.966h38.961h20.34h34.713
		C114.375,49.049,109.754,44.426,104.053,44.426z"/>
</g>
<g opacity="0.6">
	<path fill="#FFFFFF" d="M295.568,99.154c-1.424,0-2.771,0.28-4.061,0.687c-4.086-5.874-10.864-9.735-18.562-9.735
		c-7.698,0-14.476,3.862-18.562,9.735c-1.29-0.407-2.636-0.687-4.06-0.687c-7.497,0-13.573,6.077-13.573,13.573h72.388
		C309.14,105.231,303.063,99.154,295.568,99.154z"/>
</g>
<g>
	<path fill="#FFFFFF" d="M130.579,102.404c-1.084,0-2.107,0.213-3.088,0.523c-3.107-4.467-8.262-7.404-14.116-7.404
		c-4.317,0-8.238,1.613-11.255,4.243c-4.117-5.941-10.964-9.847-18.74-9.847c-6.615,0-12.522,2.859-16.687,7.359
		c-1.236-0.307-2.508-0.518-3.839-0.518c-8.818,0-15.965,7.148-15.965,15.966h38.959h20.34h34.713
		C140.901,107.027,136.28,102.404,130.579,102.404z"/>
</g>
<g opacity="0.6">
	<path fill="#FFFFFF" d="M75.571,99.153c-1.424,0-2.771,0.28-4.061,0.687c-4.086-5.874-10.865-9.735-18.562-9.735
		c-7.697,0-14.476,3.862-18.562,9.735c-1.289-0.407-2.635-0.687-4.06-0.687c-7.497,0-13.573,6.077-13.573,13.573h72.389
		C89.143,105.23,83.065,99.153,75.571,99.153z"/>
</g>
<g>
	<path fill="#FFFFFF" d="M220.418,41.951c-1.328,0-2.584,0.262-3.787,0.641c-3.812-5.48-10.137-9.083-17.318-9.083
		c-7.181,0-13.508,3.603-17.318,9.083c-1.205-0.379-2.461-0.641-3.789-0.641c-2.428,0-4.674,0.718-6.602,1.903
		c-4.086-8.858-12.988-15.04-23.385-15.04c-7.484,0-14.166,3.236-18.879,8.325c-1.396-0.347-2.836-0.585-4.342-0.585
		c-9.977,0-18.062,8.087-18.062,18.061h58.605h8.479h59.062C233.083,47.621,227.413,41.951,220.418,41.951z"/>
</g>
<g>
	<path fill="#FFFFFF" d="M862.019,112.727c-4.098-4.704-8.301-9.312-12.698-13.731c-0.35,0.261-0.728,0.484-1.056,0.771
		c-4.116-5.941-10.965-9.847-18.739-9.847c-6.615,0-12.522,2.86-16.688,7.359c-1.236-0.308-2.508-0.517-3.839-0.517
		c-8.817-0.002-15.965,7.146-15.965,15.964h38.959h20.34L862.019,112.727L862.019,112.727z"/>
</g>
<g>
	<path fill="#FFFFFF" d="M144.432,99.062c-1.424,0-2.771,0.28-4.061,0.687c-4.086-5.874-10.865-9.735-18.562-9.735
		c-7.697,0-14.476,3.862-18.562,9.735c-1.289-0.407-2.635-0.687-4.06-0.687c-7.497,0-13.573,6.077-13.573,13.573h72.39
		C158.004,105.139,151.926,99.062,144.432,99.062z"/>
</g>
<g>
	<path fill="#FFFFFF" d="M539.409,155.483c-1.877,0-3.65,0.369-5.353,0.905c-5.384-7.741-14.316-12.831-24.46-12.831
		c-10.145,0-19.077,5.089-24.463,12.831c-1.699-0.536-3.473-0.905-5.351-0.905c-9.879,0-17.887,8.009-17.887,17.888h95.4
		C557.296,163.492,549.288,155.483,539.409,155.483z"/>
</g>
<g>
	<path fill="#FFFFFF" d="M835.458,155.435c-1.877,0-3.65,0.369-5.353,0.905c-5.384-7.741-14.316-12.831-24.46-12.831
		c-10.145,0-19.077,5.089-24.463,12.831c-1.699-0.536-3.473-0.905-5.351-0.905c-9.879,0-17.887,8.009-17.887,17.888h95.4
		C853.345,163.443,845.337,155.435,835.458,155.435z"/>
</g>
<g>
	<path fill="#FFFFFF" d="M198.237,35.74c-1.877,0-3.65,0.369-5.353,0.905c-5.384-7.741-14.316-12.831-24.46-12.831
		c-10.145,0-19.077,5.089-24.463,12.831c-1.699-0.536-3.473-0.905-5.351-0.905c-9.879,0-17.887,8.009-17.887,17.888h95.4
		C216.124,43.749,208.116,35.74,198.237,35.74z"/>
</g>
<g>
	<path fill="#FFFFFF" d="M663.669,36.902c-1.877,0-3.65,0.369-5.353,0.905c-5.384-7.741-14.316-12.831-24.46-12.831
		c-10.145,0-19.077,5.089-24.463,12.831c-1.699-0.536-3.473-0.905-5.351-0.905c-9.879,0-17.887,8.009-17.887,17.888h95.4
		C681.556,44.911,673.548,36.902,663.669,36.902z"/>
</g>
<g>
	<path fill="#FFFFFF" d="M857.336,94.923c-1.877,0-3.65,0.369-5.353,0.905c-5.384-7.741-14.316-12.831-24.46-12.831
		c-10.145,0-19.077,5.089-24.463,12.831c-1.699-0.536-3.473-0.905-5.351-0.905c-9.879,0-17.887,8.008-17.887,17.887h95.4
		C875.223,102.931,867.215,94.923,857.336,94.923z"/>
</g>
</svg>
