<?xml version="1.0" encoding="iso-8859-1"?>
<!-- Generator: Adobe Illustrator 18.0.0, SVG Export Plug-In . SVG Version: 6.00 Build 0)  -->
<!DOCTYPE svg PUBLIC "-//W3C//DTD SVG 1.1//EN" "http://www.w3.org/Graphics/SVG/1.1/DTD/svg11.dtd">
<svg xmlns="http://www.w3.org/2000/svg" xmlns:xlink="http://www.w3.org/1999/xlink" version="1.1" id="Capa_1" x="0px" y="0px" viewBox="0 0 57 57" style="enable-background:new 0 0 57 57;" xml:space="preserve" width="512px" height="512px">
<path d="M36.489,45.5H2.958C1.327,45.5,0,44.173,0,42.542V14.458C0,12.827,1.327,11.5,2.958,11.5h33.531  c0.668,0,1.324,0.23,1.846,0.647l17.556,14.045C56.596,26.756,57,27.597,57,28.5s-0.404,1.744-1.109,2.308L38.334,44.853  C37.813,45.27,37.157,45.5,36.489,45.5z M2.958,13.5C2.43,13.5,2,13.93,2,14.458v28.084C2,43.07,2.43,43.5,2.958,43.5h33.531  c0.216,0,0.428-0.074,0.597-0.209l17.556-14.045C54.869,29.063,55,28.792,55,28.5s-0.131-0.563-0.358-0.746L37.085,13.709  c-0.169-0.135-0.38-0.209-0.597-0.209H2.958z" fill="#00ad97"/>
<g>
</g>
<g>
</g>
<g>
</g>
<g>
</g>
<g>
</g>
<g>
</g>
<g>
</g>
<g>
</g>
<g>
</g>
<g>
</g>
<g>
</g>
<g>
</g>
<g>
</g>
<g>
</g>
<g>
</g>
</svg>
