<?xml version="1.0" encoding="iso-8859-1"?>
<!-- Generator: Adobe Illustrator 19.0.0, SVG Export Plug-In . SVG Version: 6.00 Build 0)  -->
<svg version="1.1" id="Capa_1" xmlns="http://www.w3.org/2000/svg" xmlns:xlink="http://www.w3.org/1999/xlink" x="0px" y="0px"
	 viewBox="0 0 57.633 57.633" style="enable-background:new 0 0 57.633 57.633;" xml:space="preserve">
<path style="fill:#EBBA16;" d="M22.088,35.534c0,5.302-5.656,10.047-5.656,10.047c0-4.186-2.121-8.372-2.121-8.372
	c0,3.279-4.949,3.349-4.949,3.349c-2.209-2.372,0-8.93,0-8.93c-5.38,0.56-8.077,3.488-8.077,8.372c0,3.453,1.222,5.751,3.128,7.256
	c0,0-1.692-0.775-3.379-1.286c0.875,5.47,5.687,9.658,11.509,9.658c6.442,0,11.665-4.709,11.665-11.163S22.088,35.534,22.088,35.534
	z"/>
<path style="fill:#BE6E41;" d="M57.34,55.92L44,42.58v-7.953c0-0.552-0.448-1-1-1s-1,0.448-1,1v5.953L29.056,27.636
	c-0.391-0.391-1.023-0.391-1.414,0s-0.391,1.023,0,1.414l4.577,4.577H31c-0.552,0-1,0.448-1,1s0.448,1,1,1h3
	c0.065,0,0.121-0.025,0.182-0.037l15.037,15.037H45c-0.552,0-1,0.448-1,1s0.448,1,1,1h6c0.065,0,0.121-0.025,0.182-0.037
	l4.744,4.744c0.195,0.195,0.451,0.293,0.707,0.293s0.512-0.098,0.707-0.293C57.73,56.943,57.73,56.311,57.34,55.92z"/>
<path style="fill:#FBD490;" d="M30.238,26.461l-3.771,3.771l0,0c-2.074,2.074-5.362,2.18-7.306,0.235l-3.536-3.536
	c-1.945-1.945-1.838-5.233,0.236-7.307l3.771-3.771c2.074-2.074,5.362-2.18,7.307-0.236l3.536,3.536
	C32.418,21.098,32.312,24.386,30.238,26.461z"/>
<path style="fill:#CEAC76;" d="M19.621,15.844l-3.771,3.771c-1.123,1.123-1.648,2.599-1.604,4.027
	c1.428,0.044,2.904-0.481,4.027-1.604l0,0l3.771-3.771c1.123-1.123,1.648-2.599,1.604-4.027
	C22.22,14.196,20.743,14.721,19.621,15.844z"/>
<path style="fill:#BE6E41;" d="M15.896,14.73c-0.391-0.391-1.023-0.391-1.414,0s-0.391,1.023,0,1.414l3,3
	c0.195,0.195,0.451,0.293,0.707,0.293s0.512-0.098,0.707-0.293c0.391-0.391,0.391-1.023,0-1.414L15.896,14.73z"/>
<path style="fill:#FBD490;" d="M17.005,13.228l-3.771,3.771l0,0c-2.074,2.074-5.362,2.18-7.306,0.235L2.392,13.7
	c-1.945-1.945-1.838-5.233,0.236-7.307l3.771-3.771c2.074-2.074,5.362-2.18,7.307-0.236l3.536,3.536
	C19.185,7.866,19.079,11.154,17.005,13.228z"/>
<path style="fill:#CEAC76;" d="M6.399,2.622L2.627,6.393C1.505,7.516,0.979,8.992,1.023,10.42c1.428,0.044,2.904-0.481,4.027-1.604
	l0,0l3.771-3.771c1.123-1.123,1.648-2.599,1.604-4.027C8.998,0.974,7.521,1.499,6.399,2.622z"/>
<path style="fill:#BE6E41;" d="M1.707,0.299c-0.391-0.391-1.023-0.391-1.414,0s-0.391,1.023,0,1.414l4.121,4.121
	c0.195,0.195,0.451,0.293,0.707,0.293s0.512-0.098,0.707-0.293c0.391-0.391,0.391-1.023,0-1.414L1.707,0.299z"/>
<g>
</g>
<g>
</g>
<g>
</g>
<g>
</g>
<g>
</g>
<g>
</g>
<g>
</g>
<g>
</g>
<g>
</g>
<g>
</g>
<g>
</g>
<g>
</g>
<g>
</g>
<g>
</g>
<g>
</g>
</svg>
