<?xml version="1.0" encoding="utf-8"?>
<!-- Generator: Adobe Illustrator 16.0.3, SVG Export Plug-In . SVG Version: 6.00 Build 0)  -->
<!DOCTYPE svg PUBLIC "-//W3C//DTD SVG 1.1//EN" "http://www.w3.org/Graphics/SVG/1.1/DTD/svg11.dtd">
<svg version="1.1" id="Menu" xmlns="http://www.w3.org/2000/svg" xmlns:xlink="http://www.w3.org/1999/xlink" x="0px" y="0px"
	 width="300px" height="300px" viewBox="0 0 300 300" enable-background="new 0 0 300 300" xml:space="preserve">
<circle stroke="#000000" stroke-miterlimit="10" cx="150" cy="150" r="138.5"/>
<path fill="#FFFFFF" d="M223.351,138.539H76.65c-6.326,0-6.876,5.123-6.876,11.461s0.55,11.461,6.876,11.461h146.701
	c6.326,0,6.877-5.123,6.877-11.461S229.677,138.539,223.351,138.539z M223.351,184.383H76.65c-6.326,0-6.876,5.123-6.876,11.461
	s0.55,11.461,6.876,11.461h146.701c6.326,0,6.877-5.123,6.877-11.461S229.677,184.383,223.351,184.383z M76.65,115.617h146.701
	c6.326,0,6.877-5.123,6.877-11.461s-0.551-11.461-6.877-11.461H76.65c-6.326,0-6.876,5.123-6.876,11.461
	S70.324,115.617,76.65,115.617z"/>
</svg>
