<?xml version="1.0" encoding="utf-8"?>
<!-- Generator: Adobe Illustrator 16.0.3, SVG Export Plug-In . SVG Version: 6.00 Build 0)  -->
<!DOCTYPE svg PUBLIC "-//W3C//DTD SVG 1.1//EN" "http://www.w3.org/Graphics/SVG/1.1/DTD/svg11.dtd">
<svg version="1.1" id="Capa_1" xmlns="http://www.w3.org/2000/svg" xmlns:xlink="http://www.w3.org/1999/xlink" x="0px" y="0px"
	 width="206px" height="206px" viewBox="-50.476 -50.476 206 206" enable-background="new -50.476 -50.476 206 206"
	 xml:space="preserve">
<g>
	<path fill="#010002" d="M84.838,0H21.209C9.543,0,0,9.543,0,21.209v63.629c0,11.666,9.543,21.209,21.209,21.209h63.627
		c11.668,0,21.211-9.543,21.211-21.209V21.209C106.047,9.543,96.504,0,84.838,0z M86.795,62.743l2.885-0.969l1.27,3.791
		l-2.496,0.828c-1.066-0.155-1.854-0.486-2.402-0.975L86.795,62.743z M74.689,58.398c0.187-1.272,0.668-2.04,1.438-2.306
		c0.543,0.214,1.088,0.416,1.627,0.597c1.117,0.353,1.733,0.497,1.863,0.456l-0.021-0.072c0.694-0.229,1.2,0.182,1.532,1.206
		c0.312,0.896,0.373,1.822,0.197,2.791c-0.177,0.964-0.529,1.604-1.035,1.916c-0.219,0.072-1.021,0.414-2.444,1.03l-1.253,0.066
		L75.859,63.4c-0.425-0.435-0.692-0.808-0.808-1.159C74.627,60.961,74.502,59.678,74.689,58.398z M74.088,67.579l2.89-0.968
		l1.265,3.779l-2.496,0.84c-1.057-0.155-1.854-0.492-2.397-0.976L74.088,67.579z M71.521,60.987c0.248,0.727-0.03,1.232-0.845,1.508
		l-2.252,0.746l-1.486-1.715c-0.295-0.85,0.088-1.662,1.098-2.443l2.979,1.01C71.282,60.429,71.447,60.739,71.521,60.987z
		 M67.045,52.048c0.742-0.238,1.42-0.189,2.078,0.127c0.662,0.328,1.07,0.753,1.248,1.263c0.207,0.637-0.131,1.46-1.025,2.486
		l-3.418,0.424l-0.124-3.526C66.254,52.436,66.652,52.18,67.045,52.048z M18.527,32.021l-2.604-4.073l-1.134,0.733l-1.533-2.393
		l12.073-7.736l1.533,2.387l-1.134,0.725l2.615,4.072l-1.294,5.9l7.482,12.381l6.208-3.987c0,0,6.568,9.714,5.895,13.748
		c-0.678,4.045-2.752,7.777-2.752,7.777s-4.262,0.326-8.218-0.75c-3.951-1.082-10.032-11.092-10.032-11.092l6.234-3.998L24.371,33.3
		L18.527,32.021z M23.527,87.495l0.714-4.511l6.411-3.562l-0.997-7.551l8.505-0.74l0.44-3.93l9.88-0.851l0.566-7.062l1.696-2.258
		l3.948,0.85l0.455,3.76l6.322-0.398l0.398,7.108l7.109,2.771l0.398,5.53c0.61,0.851,3.713-0.513,4.256,0.28
		c-0.496-0.782,0.55,0.797,0,0c-0.698,3.277,4.147,3.836,4.147,3.836l0.948,3.035l3.158,3.666L23.527,87.495z M83.398,81.482
		c-0.16-0.378-0.922-1.123-2.294-2.247c-1.277-1.148-1.941-1.761-1.973-1.822c-0.307-0.927-0.114-2.195,0.568-3.802
		c0.699-1.688,1.533-2.981,2.538-3.883l0.32-0.104c2.134-0.709,3.915-0.26,5.37,1.346c0.891,1.006,1.775,2.818,2.65,5.443
		c0.108,0.325,0.1,0.662-0.035,1.021c-0.142,0.362-0.357,0.726-0.652,1.077c-0.301,0.347-0.663,0.673-1.104,0.963
		c-0.431,0.279-0.887,0.497-1.353,0.652L83.398,81.482z M90.286,86.526c-1.052-0.154-1.844-0.486-2.393-0.975l0.74-2.678
		l2.895-0.967l1.264,3.784L90.286,86.526z M25.028,31.363l-5.24-1.149l-2.151-3.363l6.382-4.088l2.149,3.36L25.028,31.363z"/>
</g>
<rect x="-50.476" y="-40.476" fill="none" width="206" height="40.476"/>
<text transform="matrix(1 0 0 1 1.5249 -14.6704)" font-family="'FiraMono-Bold'" font-size="34">Under</text>
<rect x="-50.476" y="115.047" fill="none" width="206" height="40.477"/>
<text transform="matrix(1 0 0 1 -33.8745 133.2632)" font-family="'FiraMono-Bold'" font-size="24">Construction</text>
</svg>
