<?xml version="1.0" encoding="utf-8"?>
<!-- Generator: Adobe Illustrator 16.0.3, SVG Export Plug-In . SVG Version: 6.00 Build 0)  -->
<!DOCTYPE svg PUBLIC "-//W3C//DTD SVG 1.1//EN" "http://www.w3.org/Graphics/SVG/1.1/DTD/svg11.dtd">
<svg version="1.1" id="Layer_1" xmlns="http://www.w3.org/2000/svg" xmlns:xlink="http://www.w3.org/1999/xlink" x="0px" y="0px"
	 width="476.75px" height="244.578px" viewBox="0 0 476.75 244.578" enable-background="new 0 0 476.75 244.578"
	 xml:space="preserve">
<circle fill="#FFFFFF" stroke="#000000" stroke-miterlimit="10" cx="141.675" cy="44.898" r="12.5"/>
<text transform="matrix(1 0 0 1 138.6143 48.6758)" font-family="'Avenir-Roman'" font-size="12">1</text>
<circle fill="#FFFFFF" stroke="#000000" stroke-miterlimit="10" cx="173.675" cy="44.898" r="12.5"/>
<text transform="matrix(1 0 0 1 170.6143 48.6758)" font-family="'Avenir-Roman'" font-size="12">2</text>
<circle fill="#FFFFFF" stroke="#000000" stroke-miterlimit="10" cx="205.675" cy="44.898" r="12.5"/>
<text transform="matrix(1 0 0 1 202.6143 48.6758)" font-family="'Avenir-Roman'" font-size="12">3</text>
<circle fill="#FFFFFF" stroke="#000000" stroke-miterlimit="10" cx="87.675" cy="86.898" r="12.5"/>
<text transform="matrix(1 0 0 1 84.6143 90.6758)" font-family="'Avenir-Roman'" font-size="12">1</text>
<circle fill="#FFFFFF" stroke="#000000" stroke-miterlimit="10" cx="119.675" cy="86.898" r="12.5"/>
<text transform="matrix(1 0 0 1 116.6143 90.6758)" font-family="'Avenir-Roman'" font-size="12">2</text>
<circle fill="#FFFFFF" stroke="#000000" stroke-miterlimit="10" cx="158.675" cy="86.898" r="12.5"/>
<text transform="matrix(1 0 0 1 155.6143 90.6758)" font-family="'Avenir-Roman'" font-size="12">S</text>
<circle fill="#FFFFFF" stroke="#000000" stroke-miterlimit="10" cx="189.675" cy="86.898" r="12.5"/>
<text transform="matrix(1 0 0 1 186.6143 90.6758)" font-family="'Avenir-Roman'" font-size="12">1</text>
<circle fill="#FFFFFF" stroke="#000000" stroke-miterlimit="10" cx="228.675" cy="86.898" r="12.5"/>
<text transform="matrix(1 0 0 1 225.6143 90.6758)" font-family="'Avenir-Roman'" font-size="12">2</text>
<circle fill="#FFFFFF" stroke="#000000" stroke-miterlimit="10" cx="260.675" cy="86.898" r="12.5"/>
<text transform="matrix(1 0 0 1 257.6143 90.6758)" font-family="'Avenir-Roman'" font-size="12">3</text>
<circle fill="#FFFFFF" stroke="#000000" stroke-miterlimit="10" cx="41.675" cy="128.898" r="12.5"/>
<text transform="matrix(1 0 0 1 38.6143 132.6758)" font-family="'Avenir-Roman'" font-size="12">1</text>
<circle fill="#FFFFFF" stroke="#000000" stroke-miterlimit="10" cx="73.675" cy="128.898" r="12.5"/>
<text transform="matrix(1 0 0 1 70.6143 132.6758)" font-family="'Avenir-Roman'" font-size="12">2</text>
<circle fill="#FFFFFF" stroke="#000000" stroke-miterlimit="10" cx="105.675" cy="128.898" r="12.5"/>
<text transform="matrix(1 0 0 1 102.6143 132.6758)" font-family="'Avenir-Roman'" font-size="12">3</text>
<circle fill="#FFFFFF" stroke="#000000" stroke-miterlimit="10" cx="140.675" cy="128.898" r="12.5"/>
<text transform="matrix(1 0 0 1 137.6143 132.6758)" font-family="'Avenir-Roman'" font-size="12">S</text>
<circle fill="#FFFFFF" stroke="#000000" stroke-miterlimit="10" cx="172.675" cy="128.898" r="12.5"/>
<text transform="matrix(1 0 0 1 169.6143 132.6758)" font-family="'Avenir-Roman'" font-size="12">1</text>
<circle fill="#FFFFFF" stroke="#000000" stroke-miterlimit="10" cx="204.675" cy="128.898" r="12.5"/>
<text transform="matrix(1 0 0 1 201.6143 132.6758)" font-family="'Avenir-Roman'" font-size="12">2</text>
<circle fill="#FFFFFF" stroke="#000000" stroke-miterlimit="10" cx="240.675" cy="128.898" r="12.5"/>
<text transform="matrix(1 0 0 1 237.6143 132.6758)" font-family="'Avenir-Roman'" font-size="12">S</text>
<circle fill="#FFFFFF" stroke="#000000" stroke-miterlimit="10" cx="272.675" cy="128.898" r="12.5"/>
<text transform="matrix(1 0 0 1 269.6143 132.6758)" font-family="'Avenir-Roman'" font-size="12">1</text>
<circle fill="#FFFFFF" stroke="#000000" stroke-miterlimit="10" cx="304.675" cy="128.898" r="12.5"/>
<text transform="matrix(1 0 0 1 301.6143 132.6758)" font-family="'Avenir-Roman'" font-size="12">3</text>
<circle fill="#FFFFFF" stroke="#000000" stroke-miterlimit="10" cx="173.675" cy="171.896" r="12.5"/>
<text transform="matrix(1 0 0 1 170.6143 175.6748)" font-family="'Avenir-Roman'" font-size="12">1</text>
<circle fill="#FFFFFF" stroke="#000000" stroke-miterlimit="10" cx="156.675" cy="199.896" r="12.5"/>
<text transform="matrix(1 0 0 1 153.6143 203.6748)" font-family="'Avenir-Roman'" font-size="12">2</text>
<circle fill="#FFFFFF" stroke="#000000" stroke-miterlimit="10" cx="189.675" cy="199.896" r="12.5"/>
<text transform="matrix(1 0 0 1 186.6143 203.6748)" font-family="'Avenir-Roman'" font-size="12">3</text>
<line fill="none" stroke="#000000" stroke-miterlimit="10" x1="100" y1="86.886" x2="107" y2="86.886"/>
<line fill="none" stroke="#000000" stroke-miterlimit="10" x1="171" y1="86.886" x2="177" y2="86.886"/>
<line fill="none" stroke="#000000" stroke-miterlimit="10" x1="241" y1="86.886" x2="248" y2="86.886"/>
<line fill="none" stroke="#000000" stroke-miterlimit="10" x1="54" y1="128.886" x2="61" y2="128.886"/>
<line fill="none" stroke="#000000" stroke-miterlimit="10" x1="86" y1="128.886" x2="93" y2="128.886"/>
<line fill="none" stroke="#000000" stroke-miterlimit="10" x1="153" y1="128.886" x2="160" y2="128.886"/>
<line fill="none" stroke="#000000" stroke-miterlimit="10" x1="185" y1="128.886" x2="192" y2="128.886"/>
<line fill="none" stroke="#000000" stroke-miterlimit="10" x1="253" y1="128.886" x2="260" y2="128.886"/>
<line fill="none" stroke="#000000" stroke-miterlimit="10" x1="285" y1="128.886" x2="292" y2="128.886"/>
<line fill="none" x1="161.175" y1="188.236" x2="166.675" y2="182.255"/>
<line fill="none" x1="180.675" y1="182.255" x2="185" y2="188.307"/>
<line fill="none" x1="161.175" y1="188.236" x2="166.675" y2="182.255"/>
<line fill="none" stroke="#000000" stroke-miterlimit="10" x1="160.584" y1="187.755" x2="164.515" y2="180.197"/>
<line fill="none" stroke="#000000" stroke-miterlimit="10" x1="169" y1="199.886" x2="177" y2="199.886"/>
<text transform="matrix(1 0 0 1 362.957 49.4336)" font-family="'Avenir-Roman'" font-size="21">(  )</text>
<text transform="matrix(1 0 0 1 371.793 41.1191)" font-family="'Avenir-Roman'" font-size="11">3</text>
<text transform="matrix(1 0 0 1 371.793 54.3203)" font-family="'Avenir-Roman'" font-size="11">0</text>
<text transform="matrix(1 0 0 1 362.957 89.2754)" font-family="'Avenir-Roman'" font-size="21">(  )</text>
<text transform="matrix(1 0 0 1 371.793 80.9629)" font-family="'Avenir-Roman'" font-size="11">3</text>
<text transform="matrix(1 0 0 1 371.793 94.1621)" font-family="'Avenir-Roman'" font-size="11">1</text>
<text transform="matrix(1 0 0 1 362.957 129.2637)" font-family="'Avenir-Roman'" font-size="21">(  )</text>
<text transform="matrix(1 0 0 1 371.793 120.9521)" font-family="'Avenir-Roman'" font-size="11">3</text>
<text transform="matrix(1 0 0 1 371.793 134.1504)" font-family="'Avenir-Roman'" font-size="11">2</text>
<text transform="matrix(1 0 0 1 362.957 186.7891)" font-family="'Avenir-Roman'" font-size="21">(  )</text>
<text transform="matrix(1 0 0 1 371.793 178.4766)" font-family="'Avenir-Roman'" font-size="11">3</text>
<text transform="matrix(1 0 0 1 371.793 191.6758)" font-family="'Avenir-Roman'" font-size="11">3</text>
<rect x="123.5" y="26.886" fill="none" stroke="#000000" stroke-miterlimit="10" width="100" height="35"/>
<circle fill="#FFFFFF" stroke="#000000" stroke-miterlimit="10" cx="137.614" cy="171.896" r="12.5"/>
<text transform="matrix(1 0 0 1 134.5537 175.6758)" font-family="'Avenir-Roman'" font-size="12">S</text>
<line fill="none" x1="150.114" y1="171.896" x2="161.175" y2="171.896"/>
<line fill="none" stroke="#000000" stroke-miterlimit="10" x1="150.114" y1="171.896" x2="161.175" y2="171.896"/>
</svg>
